<svg xmlns="http://www.w3.org/2000/svg" width="992.817" height="172.500" viewBox="0 0 992.817 172.500" fill="none">
  <path d="M 0 86.25 C 0 133.885 38.615 172.5 86.25 172.5 C 133.885 172.5 172.5 133.885 172.5 86.25 C 172.5 38.615 133.885 0 86.25 0 C 38.615 0 0 38.615 0 86.25 Z M 10.325 102.22 C 15.555 127.21 32.812 147.781 55.764 157.601 C 45.976 147.008 38.482 131.457 34.709 113.219 C 24.671 110.298 16.319 106.544 10.325 102.22 Z M 8.679 86.25 C 8.679 87.653 9.374 89.93 12.661 92.96 C 15.956 95.998 21.202 99.133 28.415 101.945 C 29.914 102.53 31.48 103.093 33.107 103.633 C 32.384 98.018 32.005 92.205 32.005 86.25 C 32.005 80.295 32.384 74.482 33.107 68.867 C 31.48 69.407 29.914 69.97 28.415 70.555 C 21.202 73.367 15.956 76.502 12.661 79.54 C 9.374 82.57 8.679 84.847 8.679 86.25 Z M 34.709 59.281 C 24.671 62.202 16.319 65.956 10.325 70.28 C 15.555 45.29 32.812 24.719 55.764 14.899 C 45.976 25.492 38.482 41.043 34.709 59.281 Z M 42.254 66.24 C 41.234 72.601 40.684 79.304 40.684 86.25 C 40.684 93.196 41.234 99.899 42.254 106.26 C 54.772 109.35 69.858 111.203 86.25 111.203 C 102.642 111.203 117.728 109.35 130.246 106.26 C 131.266 99.899 131.816 93.196 131.816 86.25 C 131.816 79.304 131.266 72.601 130.246 66.24 C 117.728 63.15 102.642 61.297 86.25 61.297 C 69.858 61.297 54.772 63.15 42.254 66.24 Z M 128.352 56.89 C 115.9 54.169 101.54 52.618 86.25 52.618 C 70.96 52.618 56.6 54.169 44.148 56.89 C 46.695 46.548 50.528 37.375 55.24 29.883 C 64.13 15.747 75.317 8.679 86.25 8.679 C 97.183 8.679 108.37 15.747 117.26 29.883 C 121.972 37.375 125.805 46.548 128.352 56.89 Z M 139.393 68.867 C 140.116 74.482 140.495 80.295 140.495 86.25 C 140.495 92.205 140.116 98.018 139.393 103.633 C 141.02 103.093 142.586 102.53 144.085 101.945 C 151.298 99.133 156.544 95.998 159.839 92.96 C 163.126 89.93 163.821 87.653 163.821 86.25 C 163.821 84.847 163.126 82.57 159.839 79.54 C 156.544 76.502 151.298 73.367 144.085 70.555 C 142.586 69.97 141.02 69.407 139.393 68.867 Z M 162.175 70.28 C 156.181 65.956 147.829 62.202 137.791 59.281 C 134.018 41.043 126.524 25.492 116.736 14.899 C 139.688 24.719 156.945 45.29 162.175 70.28 Z M 162.175 102.22 C 156.181 106.544 147.829 110.298 137.791 113.219 C 134.018 131.457 126.524 147.008 116.736 157.601 C 139.688 147.781 156.945 127.21 162.175 102.22 Z M 128.352 115.61 C 115.9 118.331 101.54 119.882 86.25 119.882 C 70.96 119.882 56.6 118.331 44.148 115.61 C 46.695 125.952 50.528 135.125 55.24 142.617 C 64.13 156.753 75.317 163.821 86.25 163.821 C 97.183 163.821 108.37 156.753 117.26 142.617 C 121.972 135.125 125.805 125.952 128.352 115.61 Z" fill="currentColor" fill-rule="evenodd"></path>
  <path d="M 236.5 127.15 L 236.5 45.464 L 268.946 45.464 C 283.912 45.464 295.451 52.09 295.451 69.227 C 295.451 86.364 283.912 92.991 268.946 92.991 L 246.782 92.991 L 246.782 127.15 L 236.5 127.15 Z M 246.782 83.851 L 269.632 83.851 C 279.799 83.851 284.712 79.167 284.712 69.227 C 284.712 59.288 279.799 54.604 269.632 54.604 L 246.782 54.604 L 246.782 83.851 Z" fill="currentColor" fill-rule="nonzero"></path>
  <path d="M 313.096 96.075 L 313.096 127.15 L 303.956 127.15 L 303.956 68.885 L 313.096 68.885 L 313.096 80.423 L 313.325 80.423 C 316.409 72.769 321.093 67.285 329.433 67.285 C 331.604 67.285 333.203 67.399 334.803 67.628 L 334.803 76.768 C 333.432 76.539 332.404 76.425 331.033 76.425 C 320.294 76.425 313.096 84.879 313.096 96.075 Z" fill="currentColor" fill-rule="nonzero"></path>
  <path d="M 365.133 128.864 C 347.31 128.864 336.571 116.183 336.571 98.017 C 336.571 79.852 347.31 67.171 365.133 67.171 C 382.841 67.171 393.58 79.852 393.58 98.017 C 393.58 116.183 382.841 128.864 365.133 128.864 Z M 346.168 98.017 C 346.168 110.47 351.994 120.867 365.133 120.867 C 378.157 120.867 383.983 110.47 383.983 98.017 C 383.983 85.565 378.157 75.168 365.133 75.168 C 351.994 75.168 346.168 85.565 346.168 98.017 Z" fill="currentColor" fill-rule="nonzero"></path>
  <path d="M 426.78 128.75 C 412.156 128.75 400.503 117.211 400.503 98.017 C 400.503 78.824 412.156 67.285 426.78 67.285 C 436.148 67.285 441.632 71.398 445.059 76.425 L 445.287 76.425 L 445.287 45.464 L 454.427 45.464 L 454.427 127.15 L 445.287 127.15 L 445.287 119.953 L 445.059 119.953 C 441.632 124.408 436.148 128.75 426.78 128.75 Z M 410.1 98.017 C 410.1 109.442 415.698 120.752 427.693 120.752 C 438.547 120.752 445.287 111.727 445.287 98.017 C 445.287 84.308 438.547 75.282 427.693 75.282 C 415.698 75.282 410.1 86.593 410.1 98.017 Z" fill="currentColor" fill-rule="nonzero"></path>
  <path d="M 486.707 128.75 C 476.082 128.75 467.171 122.923 467.171 109.556 L 467.171 68.885 L 476.311 68.885 L 476.311 107.271 C 476.311 114.812 479.852 120.752 488.992 120.752 C 499.274 120.752 506.129 114.24 506.129 105.215 L 506.129 68.885 L 515.269 68.885 L 515.269 127.15 L 506.129 127.15 L 506.129 120.181 L 505.901 120.181 C 502.816 124.294 496.647 128.75 486.707 128.75 Z" fill="currentColor" fill-rule="nonzero"></path>
  <path d="M 553.565 128.75 C 536.542 128.75 525.346 116.297 525.346 98.017 C 525.346 79.738 536.542 67.285 553.565 67.285 C 567.96 67.285 577.785 76.882 579.156 89.906 L 569.559 89.906 C 569.102 83.508 565.218 75.282 553.565 75.282 C 539.741 75.282 534.943 87.05 534.943 98.017 C 534.943 108.985 539.741 120.752 553.565 120.752 C 565.332 120.752 569.102 112.641 569.559 105.672 L 579.156 105.672 C 578.356 118.925 567.96 128.75 553.565 128.75 Z" fill="currentColor" fill-rule="nonzero"></path>
  <path d="M 606.285 127.722 C 597.717 127.722 591.776 124.751 591.776 111.498 L 591.776 76.882 L 583.207 76.882 L 583.207 68.885 L 591.776 68.885 L 591.776 49.463 L 600.915 49.463 L 600.915 68.885 L 612.34 68.885 L 612.34 76.882 L 600.915 76.882 L 600.915 111.955 C 600.915 118.125 602.401 119.724 607.542 119.724 C 609.484 119.724 610.398 119.61 612.34 119.382 L 612.34 127.15 C 609.712 127.607 608.341 127.722 606.285 127.722 Z" fill="currentColor" fill-rule="nonzero"></path>
  <path d="M 647.976 98.931 C 632.781 98.931 620.785 87.164 620.785 71.284 C 620.785 55.403 632.781 43.636 647.976 43.636 C 663.171 43.636 675.167 55.403 675.167 71.284 C 675.167 87.164 663.171 98.931 647.976 98.931 Z M 625.812 71.284 C 625.812 84.651 635.523 94.476 647.976 94.476 C 660.429 94.476 670.14 84.651 670.14 71.284 C 670.14 57.917 660.429 48.092 647.976 48.092 C 635.523 48.092 625.812 57.917 625.812 71.284 Z M 636.666 86.478 L 636.666 55.975 L 648.89 55.975 C 656.202 55.975 659.858 59.288 659.858 65 C 659.858 69.341 657.23 71.741 653.346 72.655 L 653.346 72.883 C 661.115 74.14 658.715 85.565 660.543 86.136 L 660.543 86.478 L 653.231 86.478 C 651.746 85.108 654.145 75.625 646.834 75.625 L 643.863 75.625 L 643.863 86.478 L 636.666 86.478 Z M 643.863 69.798 L 647.062 69.798 C 650.147 69.798 653.117 69.227 653.117 65.571 C 653.117 62.144 650.147 61.687 647.062 61.687 L 643.863 61.687 L 643.863 69.798 Z" fill="currentColor" fill-rule="nonzero"></path>
  <path d="M 719.296 128.75 C 698.846 128.75 684.68 118.011 683.537 99.731 L 694.276 99.731 C 695.419 111.042 701.817 119.724 718.839 119.724 C 733.577 119.724 737.69 113.212 737.69 104.872 C 737.69 93.448 729.693 92.077 713.813 88.078 C 701.474 84.993 686.965 81.223 686.965 65.457 C 686.965 52.433 697.018 43.865 714.612 43.865 C 733.12 43.865 744.431 53.233 745.802 69.684 L 735.062 69.684 C 733.577 58.717 727.865 52.89 714.727 52.89 C 703.302 52.89 697.704 57.231 697.704 65 C 697.704 75.168 707.529 77.225 718.04 79.738 C 733.92 83.508 748.429 87.164 748.429 104.529 C 748.429 118.011 739.632 128.75 719.296 128.75 Z" fill="currentColor" fill-rule="nonzero"></path>
  <path d="M 775.981 127.722 C 767.413 127.722 761.472 124.751 761.472 111.498 L 761.472 76.882 L 752.904 76.882 L 752.904 68.885 L 761.472 68.885 L 761.472 49.463 L 770.612 49.463 L 770.612 68.885 L 782.036 68.885 L 782.036 76.882 L 770.612 76.882 L 770.612 111.955 C 770.612 118.125 772.097 119.724 777.238 119.724 C 779.18 119.724 780.094 119.61 782.036 119.382 L 782.036 127.15 C 779.409 127.607 778.038 127.722 775.981 127.722 Z" fill="currentColor" fill-rule="nonzero"></path>
  <path d="M 810.703 128.75 C 800.078 128.75 791.167 122.923 791.167 109.556 L 791.167 68.885 L 800.307 68.885 L 800.307 107.271 C 800.307 114.812 803.849 120.752 812.988 120.752 C 823.271 120.752 830.125 114.24 830.125 105.215 L 830.125 68.885 L 839.265 68.885 L 839.265 127.15 L 830.125 127.15 L 830.125 120.181 L 829.897 120.181 C 826.812 124.294 820.643 128.75 810.703 128.75 Z" fill="currentColor" fill-rule="nonzero"></path>
  <path d="M 875.733 128.75 C 861.109 128.75 849.456 117.211 849.456 98.017 C 849.456 78.824 861.109 67.285 875.733 67.285 C 885.101 67.285 890.585 71.398 894.012 76.425 L 894.241 76.425 L 894.241 45.464 L 903.381 45.464 L 903.381 127.15 L 894.241 127.15 L 894.241 119.953 L 894.012 119.953 C 890.585 124.408 885.101 128.75 875.733 128.75 Z M 859.053 98.017 C 859.053 109.442 864.651 120.752 876.647 120.752 C 887.5 120.752 894.241 111.727 894.241 98.017 C 894.241 84.308 887.5 75.282 876.647 75.282 C 864.651 75.282 859.053 86.593 859.053 98.017 Z" fill="currentColor" fill-rule="nonzero"></path>
  <path d="M 916.581 127.15 L 916.581 68.885 L 925.721 68.885 L 925.721 127.15 L 916.581 127.15 Z M 915.667 57.574 L 915.667 46.606 L 926.635 46.606 L 926.635 57.574 L 915.667 57.574 Z" fill="currentColor" fill-rule="nonzero"></path>
  <path d="M 964.37 128.864 C 946.547 128.864 935.808 116.183 935.808 98.017 C 935.808 79.852 946.547 67.171 964.37 67.171 C 982.078 67.171 992.817 79.852 992.817 98.017 C 992.817 116.183 982.078 128.864 964.37 128.864 Z M 945.405 98.017 C 945.405 110.47 951.231 120.867 964.37 120.867 C 977.394 120.867 983.22 110.47 983.22 98.017 C 983.22 85.565 977.394 75.168 964.37 75.168 C 951.231 75.168 945.405 85.565 945.405 98.017 Z" fill="currentColor" fill-rule="nonzero"></path>
</svg>